<?xml version="1.0" encoding="UTF-8"?>
<svg id="Layer_2" data-name="Layer 2" xmlns="http://www.w3.org/2000/svg" viewBox="0 0 295.6 78.27">
  <g id="Layer_1-2" data-name="Layer 1">
    <g>
      <g>
        <circle class="cls-1" cx="43.91" cy="34.36" r="19.77"/>
        <circle class="cls-2" cx="39.14" cy="39.14" r="38.14"/>
      </g>
      <g>
        <g>
          <path class="cls-1" d="m119.91,65.19c-3.91,0-5.94-3.2-5.94-7.26s2.03-7.3,5.94-7.3c2.78,0,4.53,1.53,4.95,4.02h2.92c-.29-1.76-1.03-3.23-2.15-4.31-1.37-1.33-3.32-2.09-5.72-2.09-.3,0-.59,0-.87.04-4.97.43-8.02,4.59-8.02,9.64,0,5.34,3.41,9.68,8.89,9.68,4.6,0,7.48-2.56,7.87-6.98h-2.85c-.25,2.85-2.03,4.56-5.02,4.56Z"/>
          <path class="cls-1" d="m138.39,48.25c-5.48,0-8.9,4.34-8.9,9.68s3.42,9.68,8.9,9.68,8.86-4.34,8.86-9.68-3.35-9.68-8.86-9.68Zm0,16.94c-3.92,0-5.95-3.2-5.95-7.26s2.03-7.3,5.95-7.3,5.91,3.24,5.91,7.3-2,7.26-5.91,7.26Z"/>
          <path class="cls-1" d="m158.93,48.28c-2.67,0-4.53,1.11-5.84,2.85h-.07v-2.42h-2.89v18.4h2.89v-11.32c0-3.02,2.13-5.09,5.05-5.09,2.6,0,4.17,1.36,4.17,3.74v12.67h2.88v-12.92c0-3.81-2.35-5.91-6.19-5.91Z"/>
          <path class="cls-1" d="m177.72,48.28c-2.67,0-4.52,1.11-5.84,2.85h-.07v-2.42h-2.88v18.4h2.88v-11.32c0-3.02,2.13-5.09,5.05-5.09,2.6,0,4.17,1.36,4.17,3.74v12.67h2.88v-12.92c0-3.81-2.35-5.91-6.19-5.91Z"/>
          <path class="cls-1" d="m195.59,48.25c-5.48,0-8.9,4.34-8.9,9.68s3.42,9.68,8.9,9.68,8.86-4.34,8.86-9.68-3.34-9.68-8.86-9.68Zm0,16.94c-3.92,0-5.95-3.2-5.95-7.26s2.03-7.3,5.95-7.3,5.91,3.24,5.91,7.3-2,7.26-5.91,7.26Z"/>
          <path class="cls-1" d="m207.33,48.71v18.4h2.89v-18.4h-2.89Zm0-7.05v3.56h2.89v-3.56h-2.89Z"/>
          <path class="cls-1" d="m221.57,56.26c-3.17-.64-4.95-1.04-4.95-3.03,0-1.46,1.07-2.63,3.71-2.63s4.05,1.06,4.34,3.48h2.95c-.42-3.59-2.67-5.76-7.22-5.76-4.27,0-6.62,1.99-6.62,5.05,0,4.03,3.24,4.77,6.87,5.52,3.38.71,4.8,1.25,4.8,3.31,0,1.71-1.24,3.03-4.27,3.03-2.74,0-4.88-.89-5.27-4.1h-2.95c.28,4.13,3.09,6.52,8.15,6.52,4.23,0,7.26-1.89,7.26-5.59,0-4.24-3.1-5.06-6.8-5.8Z"/>
          <path class="cls-1" d="m238.58,56.26c-3.16-.64-4.94-1.04-4.94-3.03,0-1.46,1.06-2.63,3.7-2.63s4.06,1.06,4.34,3.48h2.96c-.43-3.59-2.67-5.76-7.23-5.76-4.27,0-6.62,1.99-6.62,5.05,0,4.03,3.24,4.77,6.87,5.52,3.38.71,4.8,1.25,4.8,3.31,0,1.71-1.24,3.03-4.27,3.03-2.74,0-4.87-.89-5.26-4.1h-2.96c.28,4.13,3.1,6.52,8.15,6.52,4.24,0,7.26-1.89,7.26-5.59,0-4.24-3.09-5.06-6.8-5.8Z"/>
          <path class="cls-1" d="m256.38,65.19c-3.7,0-5.73-2.85-5.94-6.58h14.23c0-6.09-2.95-10.36-8.47-10.36-5.23,0-8.72,4.34-8.72,9.68s3.28,9.68,8.9,9.68c4.17,0,7.05-2.24,7.9-6.19h-2.81c-.64,2.49-2.42,3.77-5.09,3.77Zm-.18-14.66c3.31,0,5.2,2.24,5.38,5.9h-11.07c.43-3.34,2.28-5.9,5.69-5.9Z"/>
          <path class="cls-1" d="m279.2,48.71v11.32c0,2.92-1.89,5.13-4.81,5.13-2.6,0-4.13-1.39-4.13-3.78v-12.67h-2.88v12.74c0,3.81,2.42,6.09,6.19,6.09,2.67,0,4.24-1.17,5.56-2.95h.07v2.52h2.88v-18.4h-2.88Z"/>
          <path class="cls-1" d="m294.43,48.5c-2.46,0-4.38,1.49-5.48,3.27h-.07v-3.06h-2.89v18.4h2.89v-10.21c0-3.46,2.49-5.59,5.34-5.59.57,0,.85.03,1.28.18h.1v-2.78c-.35-.14-.64-.21-1.17-.21Z"/>
        </g>
        <g>
          <g>
            <path class="cls-1" d="m122.14,10.62c-2.76,0-4.76.9-6.34,2.53-1.86,1.86-3.09,5.17-3.81,8.07l-3.9.45-.68,1.95,3.99.14-2.36,13.05c-.16.77-.31,1.49-.46,2.16-.1.48-.2.94-.3,1.37.04.02.07.03.1.05,1.18.56,2.25,1.25,3.27,2,.22-.56.41-1.16.6-1.78.42-1.35.79-2.83,1.14-4.43l2.77-12.56h4.94l.45-2.26h-4.94c.91-4.81,2.09-8.84,3.99-9.43.54,0,1.99.32,1.99.32-1.81,1.81-.95,4.76,1.59,4.76,1.5,0,2.72-1.18,2.72-2.77,0-2.04-1.86-3.62-4.76-3.62Z"/>
            <path class="cls-1" d="m130.39,20.68c-5.3,0-10.56,6.3-10.56,12.24,0,4.94,2.94,8.74,7.34,8.74,5.53,0,10.7-6.16,10.7-12.1,0-5.03-3.17-8.88-7.48-8.88Zm1.86,12.19c-1.27,4.4-3.27,7.75-5.58,7.75-1.49,0-2.35-1.77-2.35-4.26,0-1.5.31-3.94.99-6.3,1.41-4.62,3.76-8.34,5.71-8.34,1.41,0,2.31,1.63,2.31,4.4,0,1.54-.31,4.3-1.08,6.75Z"/>
            <path class="cls-1" d="m161.57,34.68l-3.17,4.04-1.99-.32c.09-.18,1.81-4.76,2.72-6.98,1.17-3.17,2.13-6.21,2.13-7.66s-1.73-3.13-4.13-3.13c-1.09,0-2.58.82-3.67,1.91-1.59,1.54-4.26,6.25-6.66,11.1l-.27-.04c1.49-3.72,2.99-8.75,2.99-10.07s-2.81-2.94-3.72-2.94c-1.9,0-4.58,2.94-6.43,6.98l.45.4,2.95-4.3,1.94.27-2.62,9.84-2.36,7.29,5.12.14,1.54-5.08c3.81-8.02,6.48-11.92,7.75-11.92.91,0,2.13.77,2.13,1.5,0,.81-1,3.13-1.86,5.48-1.4,3.81-2.72,7.03-2.72,7.98s2.81,2.54,3.76,2.54c1.73,0,4.54-2.68,6.58-6.66l-.46-.37Z"/>
            <path class="cls-1" d="m177.89,23.62l.18-2.26-4.44-.05,1.63-5.98h-4.8l-1.72,5.8-3.67.5-.69,1.99,3.63.14c-.32,1.04-4.17,15.14-4.21,15.5-.14.91,3.26,2.45,4.8,2.45,1.95,0,4.4-2.68,6.3-6.62l-.41-.36-2.99,3.94-2.94-.27,4.44-14.78h4.89Z"/>
          </g>
          <path class="cls-1" d="m110.4,45.14c.15.21-.8,1.7-.94,1.94-.36.61-.76,1.2-1.22,1.75-3.49,4.23-9.84,6.29-15.19,5.13s-8.19-6.44-5.72-11.33c2.04-4.04,6.72-5.36,10.92-5.44,3.47-.07,7.07.53,10.33,1.78-.1.48-.2.94-.3,1.37-5.14-2.41-12.21-3.13-16.76.86-2.36,2.07-3.05,5.69-.61,7.93,3.37,3.1,8.76,2.63,12.39.27,1.29-.84,2.35-2,3.12-3.33.39-.67,1.02-3.05.99-3.07.4.11,2.49,1.42,2.99,2.14Z"/>
          <path class="cls-1" d="m133.7,48.02c-2.17,1.86-5.12,2.54-8.07,2.32-2.34-.17-4.66-.9-6.59-2.05-.42-.24-.82-.51-1.19-.79-2.16-1.63-4.06-3.52-6.2-5.11-1.02-.75-2.09-1.44-3.27-2-.03-.02-.06-.03-.1-.05.1-.43.2-.89.3-1.37.32.11.64.24.95.37.91.39,1.82.81,2.72,1.27,1.01.53,2.01,1.12,2.94,1.76,5.59,3.9,11.71,6.41,18.51,5.65Z"/>
        </g>
      </g>
    </g>
  </g>
</svg>